<svg width="10" height="20" viewBox="0 0 10 20" fill="none" xmlns="http://www.w3.org/2000/svg">
<path d="M7.83101 10L0.298259 2.46725C0.0995927 2.26858 0.00284228 2.03208 0.00800894 1.75775C0.0131756 1.48342 0.115093 1.24683 0.313759 1.048C0.512426 0.849333 0.748926 0.75 1.02326 0.75C1.29759 0.75 1.53418 0.849333 1.73301 1.048L9.38876 8.71925C9.56943 8.90008 9.70334 9.10267 9.79051 9.327C9.87784 9.55133 9.92151 9.77567 9.92151 10C9.92151 10.2243 9.87784 10.4487 9.79051 10.673C9.70334 10.8973 9.56943 11.0999 9.38876 11.2808L1.71751 18.952C1.51884 19.1507 1.28493 19.2474 1.01576 19.2423C0.746426 19.2371 0.512426 19.1352 0.313759 18.9365C0.115093 18.7378 0.0157589 18.5013 0.0157589 18.227C0.0157589 17.9527 0.115093 17.7161 0.313759 17.5173L7.83101 10Z" fill="white"/>
</svg>
