<svg width="18" height="20" viewBox="0 0 18 20" fill="none" xmlns="http://www.w3.org/2000/svg">
<path d="M8.98031 19.4845C8.36748 19.4845 7.77098 19.4131 7.19081 19.2703C6.61081 19.1273 6.00348 18.9006 5.36881 18.5903C4.66231 18.8941 3.98056 19.1108 3.32356 19.2403C2.66656 19.3698 1.97523 19.4512 1.24956 19.4845C1.03673 19.4948 0.858559 19.4281 0.715059 19.2843C0.571392 19.1404 0.499559 18.9623 0.499559 18.7498C0.499559 18.5371 0.571476 18.3595 0.715309 18.217C0.858976 18.0745 1.03706 17.997 1.24956 17.9845C1.60473 17.9678 1.94348 17.9397 2.26581 17.9C2.58831 17.8603 2.90664 17.7997 3.22081 17.7183C3.53481 17.6369 3.85239 17.5347 4.17356 17.4115C4.49473 17.2885 4.82648 17.1468 5.16881 16.9865C5.24564 16.9532 5.32256 16.9365 5.39956 16.9365C5.47639 16.9365 5.55331 16.9532 5.63031 16.9865C6.17398 17.2892 6.70056 17.5305 7.21006 17.7105C7.71973 17.8907 8.30981 17.9808 8.98031 17.9808C9.65081 17.9808 10.2409 17.8907 10.7506 17.7105C11.2602 17.5305 11.7868 17.2892 12.3303 16.9865C12.4073 16.9532 12.4842 16.9365 12.5611 16.9365C12.6381 16.9365 12.715 16.9532 12.7918 16.9865C13.1406 17.1532 13.4756 17.2981 13.7966 17.4213C14.1177 17.5443 14.437 17.6448 14.7543 17.723C15.0716 17.8013 15.3939 17.8597 15.7211 17.898C16.0484 17.9365 16.3912 17.9653 16.7496 17.9845C16.9621 17.997 17.1401 18.0749 17.2838 18.2183C17.4276 18.3617 17.4996 18.5394 17.4996 18.7513C17.4996 18.9633 17.4277 19.141 17.2841 19.2845C17.1406 19.4282 16.9624 19.4948 16.7496 19.4845C16.0164 19.4488 15.3184 19.3684 14.6556 19.2433C13.9926 19.1183 13.3098 18.9006 12.6073 18.5903C11.9726 18.9006 11.3627 19.1273 10.7776 19.2703C10.1922 19.4131 9.59314 19.4845 8.98031 19.4845ZM8.98506 15.7885C8.12939 15.7885 7.36339 15.5161 6.68706 14.9713C6.01073 14.4263 5.52514 13.9807 5.23031 13.6345C4.89448 13.9795 4.55856 14.2808 4.22256 14.5385C3.88673 14.7962 3.54639 15.0198 3.20156 15.2095C2.91689 15.3622 2.62681 15.3616 2.33131 15.2078C2.03581 15.0539 1.84123 14.8168 1.74756 14.4963L0.275809 9.5975C0.205809 9.35183 0.228892 9.12317 0.345059 8.9115C0.461392 8.7 0.643059 8.55642 0.890059 8.48075L2.24006 8.08075V4.30775C2.24006 3.81058 2.41706 3.385 2.77106 3.031C3.12506 2.677 3.55056 2.5 4.04756 2.5H6.81681V1.404C6.81681 1.14783 6.90348 0.933167 7.07681 0.760001C7.24998 0.586667 7.46464 0.5 7.72081 0.5H10.2398C10.496 0.5 10.7106 0.586667 10.8838 0.760001C11.0571 0.933167 11.1438 1.14783 11.1438 1.404V2.5H13.9131C14.4101 2.5 14.8356 2.677 15.1898 3.031C15.5438 3.385 15.7208 3.81058 15.7208 4.30775V8.08075L17.0706 8.48075C17.3177 8.55642 17.4994 8.7 17.6156 8.9115C17.7317 9.12317 17.755 9.352 17.6853 9.598L16.2226 14.5058C16.1291 14.8199 15.9361 15.0523 15.6438 15.2028C15.3515 15.3534 15.0598 15.3557 14.7688 15.2095C14.4136 15.0198 14.0697 14.7978 13.7371 14.5433C13.4044 14.2888 13.0721 13.9858 12.7401 13.6345C12.4322 13.9807 11.9434 14.4263 11.2736 14.9713C10.6037 15.5161 9.84089 15.7885 8.98506 15.7885ZM3.73981 4.26925V7.67125L8.49956 6.30775C8.65989 6.25775 8.82014 6.23275 8.98031 6.23275C9.14064 6.23275 9.30089 6.25775 9.46106 6.30775L14.2208 7.67125V4.26925C14.2208 4.19225 14.1936 4.12817 14.1391 4.077C14.0846 4.02567 14.0188 4 13.9418 4H4.01881C3.94181 4 3.87606 4.02567 3.82156 4.077C3.76706 4.12817 3.73981 4.19225 3.73981 4.26925ZM8.98031 7.7385L1.93406 9.74625L3.03606 13.5963C3.33739 13.3963 3.61339 13.1713 3.86406 12.9213C4.11473 12.6713 4.36631 12.4103 4.61881 12.1385C4.80081 11.9347 5.02448 11.8369 5.28981 11.8453C5.55531 11.8536 5.77331 11.9616 5.94381 12.1693C6.35281 12.6449 6.80373 13.117 7.29656 13.5855C7.78956 14.0542 8.36856 14.2885 9.03356 14.2885C9.68156 14.2885 10.2443 14.0517 10.7218 13.578C11.1993 13.1042 11.6426 12.6346 12.0516 12.1693C12.2196 11.9599 12.4371 11.8515 12.7043 11.844C12.9716 11.8365 13.1957 11.9347 13.3766 12.1385C13.6291 12.4103 13.8806 12.6713 14.1313 12.9213C14.382 13.1713 14.658 13.3963 14.9593 13.5963L16.0611 9.74625L8.98031 7.7385Z" fill="white"/>
</svg>
