<svg width="22" height="20" viewBox="0 0 22 20" fill="none" xmlns="http://www.w3.org/2000/svg">
<path d="M10.9996 4.21154C10.7868 4.21154 10.6086 4.13979 10.4651 3.99629C10.3214 3.85262 10.2496 3.67437 10.2496 3.46154V1.26929C10.2496 1.05645 10.3214 0.878287 10.4651 0.734787C10.6086 0.59112 10.7868 0.519287 10.9996 0.519287C11.2124 0.519287 11.3906 0.59112 11.5341 0.734787C11.6778 0.878287 11.7496 1.05645 11.7496 1.26929V3.46154C11.7496 3.67437 11.6778 3.85262 11.5341 3.99629C11.3906 4.13979 11.2124 4.21154 10.9996 4.21154ZM15.7958 6.20379C15.6508 6.05895 15.5783 5.88179 15.5783 5.67229C15.5783 5.46262 15.6508 5.28537 15.7958 5.14054L17.3303 3.59054C17.4855 3.43537 17.6653 3.35779 17.8698 3.35779C18.0743 3.35779 18.2541 3.43537 18.4091 3.59054C18.5541 3.73537 18.6266 3.91095 18.6266 4.11729C18.6266 4.32379 18.5541 4.49945 18.4091 4.64429L16.8496 6.20379C16.7048 6.34879 16.5291 6.42129 16.3226 6.42129C16.1163 6.42129 15.9407 6.34879 15.7958 6.20379ZM18.5381 11.75C18.3253 11.75 18.147 11.6782 18.0033 11.5345C17.8598 11.391 17.7881 11.2129 17.7881 11C17.7881 10.7872 17.8598 10.609 18.0033 10.4655C18.147 10.3219 18.3253 10.25 18.5381 10.25H20.7303C20.9432 10.25 21.1213 10.3219 21.2648 10.4655C21.4085 10.609 21.4803 10.7872 21.4803 11C21.4803 11.2129 21.4085 11.391 21.2648 11.5345C21.1213 11.6782 20.9432 11.75 20.7303 11.75H18.5381ZM17.3303 18.4095L15.7958 16.8595C15.6508 16.7147 15.5783 16.5375 15.5783 16.3278C15.5783 16.1183 15.6508 15.9411 15.7958 15.7963C15.9407 15.6513 16.1178 15.5788 16.3273 15.5788C16.537 15.5788 16.7143 15.6513 16.8591 15.7963L18.4091 17.3308C18.5643 17.486 18.6418 17.6658 18.6418 17.8703C18.6418 18.0748 18.5643 18.2545 18.4091 18.4095C18.2541 18.5647 18.0743 18.6423 17.8698 18.6423C17.6653 18.6423 17.4855 18.5647 17.3303 18.4095ZM5.15934 6.21354L3.59009 4.64429C3.44509 4.49945 3.37259 4.3222 3.37259 4.11254C3.37259 3.90287 3.44509 3.72887 3.59009 3.59054C3.74509 3.43537 3.92325 3.35779 4.12459 3.35779C4.32592 3.35779 4.50409 3.43537 4.65909 3.59054L6.20334 5.15004C6.34834 5.29487 6.42242 5.47212 6.42559 5.68179C6.42875 5.89145 6.35792 6.0687 6.21309 6.21354C6.06825 6.35837 5.89259 6.43079 5.68609 6.43079C5.47975 6.43079 5.30417 6.35837 5.15934 6.21354ZM5.28809 18.0578H9.59584C10.0765 18.0578 10.4883 17.8863 10.8313 17.5433C11.1743 17.2003 11.3458 16.7885 11.3458 16.3078C11.3458 15.827 11.1801 15.4167 10.8486 15.077C10.5173 14.7372 10.1112 14.5673 9.63034 14.5673H8.50934L8.07659 13.5308C7.83042 12.9551 7.44609 12.4984 6.92359 12.1605C6.40125 11.8227 5.824 11.6538 5.19184 11.6538C4.31367 11.6538 3.5685 11.9599 2.95634 12.572C2.34417 13.1842 2.03809 13.9295 2.03809 14.8078C2.03809 15.7116 2.35375 16.4792 2.98509 17.1105C3.61659 17.742 4.38425 18.0578 5.28809 18.0578ZM5.28809 19.5578C3.97525 19.5578 2.85542 19.0943 1.92859 18.1673C1.00159 17.2405 0.538086 16.1206 0.538086 14.8078C0.538086 13.5141 0.990336 12.415 1.89484 11.5105C2.79934 10.606 3.89834 10.1538 5.19184 10.1538C6.147 10.1538 7.01625 10.4183 7.79959 10.9473C8.58292 11.4761 9.15217 12.1828 9.50734 13.0673C10.4098 13.0673 11.1903 13.3728 11.8486 13.9838C12.5069 14.5946 12.8393 15.3968 12.8458 16.3903C12.8252 17.2763 12.5014 18.0257 11.8746 18.6385C11.2476 19.2514 10.488 19.5578 9.59584 19.5578H5.28809ZM12.8266 16.198C12.7624 15.948 12.6983 15.7048 12.6341 15.4683C12.5701 15.2318 12.506 14.9885 12.4418 14.7385C13.2112 14.4154 13.8298 13.9189 14.2976 13.249C14.7656 12.5792 14.9996 11.8295 14.9996 11C14.9996 9.90004 14.6079 8.95837 13.8246 8.17504C13.0413 7.3917 12.0996 7.00004 10.9996 7.00004C9.98042 7.00004 9.09259 7.33629 8.33609 8.00879C7.57975 8.68112 7.14775 9.52695 7.04009 10.5463C6.79009 10.4821 6.53492 10.4231 6.27459 10.3693C6.01442 10.3155 5.75934 10.2565 5.50934 10.1923C5.70417 8.82829 6.32434 7.7052 7.36984 6.82304C8.41534 5.94104 9.62525 5.50004 10.9996 5.50004C12.5253 5.50004 13.8233 6.03529 14.8938 7.10579C15.9643 8.17629 16.4996 9.47437 16.4996 11C16.4996 12.1744 16.1633 13.2324 15.4908 14.174C14.8185 15.1157 13.9304 15.7904 12.8266 16.198Z" fill="white"/>
</svg>
