<svg xmlns="http://www.w3.org/2000/svg" xmlns:xlink="http://www.w3.org/1999/xlink" width="126.164" height="33" viewBox="0 0 126.164 33">
  <defs>
    <clipPath id="clip-path">
      <rect id="사각형_36" data-name="사각형 36" width="126.164" height="33" fill="#174193"/>
    </clipPath>
  </defs>
  <g id="로고" transform="translate(34.295 -47)">
    <g id="그룹_1" data-name="그룹 1" transform="translate(-34.295 47)" clip-path="url(#clip-path)">
      <path id="패스_1" data-name="패스 1" d="M1038.635,197.858v2.554h14.346v-2.554h5.109v11.493h-23.729c-.24,0-.835-.791-.835-1.031V197.858Zm14.346,6.09h-14.346v1.866h14.346Z" transform="translate(-931.927 -178.408)" fill="#174193"/>
      <path id="패스_2" data-name="패스 2" d="M43.193,218.843v6.287H62.746v3.536H39.213c-.448,0-1.228-.683-1.228-1.13v-8.694Z" transform="translate(-34.251 -197.33)" fill="#174193"/>
      <path id="패스_3" data-name="패스 3" d="M375.634,175.873v3.536h-4.618l.984.736c2.5,2.163,3.17,5.075.788,7.666-4.648,5.054-18.4,5.089-22.849-.247-2.5-3-.951-6.214,1.917-8.155h-4.864l-.147-.147v-3.389Zm-15.643,4.45c-2.263.172-7.139,1.48-5.728,4.686,1.126,2.56,6.565,2.909,8.94,2.651,2.2-.239,6.747-1.515,5.5-4.615-1.044-2.6-6.378-2.9-8.715-2.722" transform="translate(-312.748 -158.584)" fill="#174193"/>
      <path id="패스_4" data-name="패스 4" d="M1010.425,30.732h4.52v-5.7h5.109V40.261h-5.109V34.269h-4.52c-1.785,5.778-9.524,7.281-14.511,4.832-5.528-2.715-6.293-9.221-.907-12.633,4.958-3.14,13.458-1.819,15.418,4.265M997.7,29.693c-3.832,4.1,2.329,9.5,6.442,5.9,4.543-3.969-2.443-10.186-6.442-5.9" transform="translate(-893.891 -22.382)" fill="#174193"/>
      <path id="패스_5" data-name="패스 5" d="M372.15,0V2.948h11.2V6.386h-3.636l1,1.5c1.364,2.925-.666,5.369-3.16,6.7-3.4,1.814-8.153,2.075-11.893,1.375-4.7-.878-10.386-4.461-6.188-9.58h-3.636V2.948h11.1V0Zm-3.459,6.414c-1.9.124-5.876.921-5.556,3.53s5.17,3.127,7.2,3.022c1.955-.1,6.6-1.15,5.583-4.008-.81-2.278-5.19-2.676-7.224-2.543" transform="translate(-320.859 -0.001)" fill="#174193"/>
      <path id="패스_6" data-name="패스 6" d="M20.929,29.979v3.536H13.56a18.444,18.444,0,0,0,1.231,5.3,10.294,10.294,0,0,0,5.843,5.309l-2.263,2.7c-.4.18-2.166-.858-2.6-1.131a14.768,14.768,0,0,1-3.917-3.647L10.712,40.1a8.27,8.27,0,0,1-2.8,3.534,17.4,17.4,0,0,1-5.6,3.254L0,44.175c2.62-1.269,5.038-2.679,6.5-5.29a14.6,14.6,0,0,0,1.555-5.371H.59V29.979Z" transform="translate(0 -27.032)" fill="#174193"/>
      <path id="패스_7" data-name="패스 7" d="M695.985,30.978c2.144.305,1.568,3.263,1.3,4.735-1.215,6.629-5.187,14.092-10.287,18.5a14.733,14.733,0,0,1-2.391,1.8l-3.9-2.387a29.739,29.739,0,0,0,11.169-16.632,13.857,13.857,0,0,0,.4-2.351c0-.121-.036-.151-.128-.221H681.3V30.978Z" transform="translate(-613.792 -27.933)" fill="#174193"/>
      <rect id="사각형_35" data-name="사각형 35" width="5.109" height="28.586" transform="translate(87.647 2.456)" fill="#174193"/>
      <path id="패스_8" data-name="패스 8" d="M242.1,24.982V45.022h-5.06l-.147-.147V24.982Z" transform="translate(-213.606 -22.526)" fill="#174193"/>
    </g>
  </g>
</svg>
