<svg xmlns="http://www.w3.org/2000/svg" width="65" height="65" viewBox="0 0 65 65">
  <g id="그룹_3" data-name="그룹 3" transform="translate(-5158 -15350)">
    <rect id="사각형_58" data-name="사각형 58" width="65" height="65" transform="translate(5158 15350)" fill="none"/>
    <path id="패스_9" data-name="패스 9" d="M43.193,218.843v6.287H62.746v3.536H39.213c-.448,0-1.228-.683-1.228-1.13v-8.694Z" transform="translate(5124.667 15167.67)" fill="#174193"/>
    <path id="패스_10" data-name="패스 10" d="M375.633,175.873v3.536h-4.618l.984.736c2.5,2.163,3.169,5.075.787,7.666-4.647,5.054-18.4,5.088-22.849-.247-2.5-3-.951-6.214,1.917-8.155h-4.864l-.147-.147v-3.389Zm-15.643,4.45c-2.263.172-7.139,1.48-5.728,4.686,1.126,2.56,6.564,2.909,8.94,2.651,2.2-.239,6.747-1.515,5.5-4.615-1.044-2.6-6.378-2.9-8.715-2.722" transform="translate(4846.17 15206.416)" fill="#174193"/>
    <path id="패스_11" data-name="패스 11" d="M372.15,0V2.948h11.2V6.386h-3.635l1,1.5c1.364,2.925-.666,5.369-3.16,6.7-3.4,1.814-8.153,2.075-11.894,1.375-4.7-.878-10.386-4.461-6.188-9.58h-3.635V2.948h11.1V0Zm-3.459,6.414c-1.9.124-5.876.921-5.556,3.53s5.17,3.127,7.2,3.022c1.955-.1,6.6-1.15,5.583-4.008-.81-2.278-5.19-2.676-7.223-2.543" transform="translate(4838.059 15364.999)" fill="#174193"/>
    <path id="패스_12" data-name="패스 12" d="M20.929,29.979v3.536H13.56a18.444,18.444,0,0,0,1.231,5.3,10.294,10.294,0,0,0,5.843,5.309l-2.263,2.7c-.4.18-2.166-.858-2.6-1.132a14.767,14.767,0,0,1-3.917-3.647L10.712,40.1a8.27,8.27,0,0,1-2.8,3.534,17.4,17.4,0,0,1-5.6,3.254L0,44.176c2.62-1.269,5.038-2.679,6.5-5.29a14.6,14.6,0,0,0,1.555-5.371H.59V29.979Z" transform="translate(5158.918 15337.968)" fill="#174193"/>
    <path id="패스_13" data-name="패스 13" d="M242.1,24.982V45.022h-5.06l-.147-.147V24.982Z" transform="translate(4945.312 15342.474)" fill="#174193"/>
  </g>
</svg>
